<?xml version="1.0" encoding="UTF-8"?>
<svg version="1.1" xmlns="http://www.w3.org/2000/svg" width="512" height="469">
<path d="M0 0 C15.98554062 12.84051571 28.16036543 30.63181021 30.8125 51.3125 C31.66149187 63.85281746 28.65264627 77.34535005 20.640625 87.21875 C16.56121387 91.64782495 12.19482698 94.97190427 7 98 C7.47308594 98.49886719 7.94617188 98.99773437 8.43359375 99.51171875 C14.31373386 105.89619837 19.20291844 112.79131845 24 120 C24.59683594 120.86109375 25.19367188 121.7221875 25.80859375 122.609375 C44.12709104 149.85443795 53.69811148 183.815508 47.375 216.375 C43.70397229 233.4057282 36.14380606 248.59662036 25 262 C26.0828125 262.34224609 26.0828125 262.34224609 27.1875 262.69140625 C35.45196938 266.5366802 40.79122044 275.44924797 44.16015625 283.58984375 C46.82344385 291.23285979 47.03851876 299.10703551 44.1796875 306.7578125 C40.89240781 313.00582092 36.59149528 317.53651873 30 320 C33.98370896 328.70554882 38.05361387 337.36428463 42.21435547 345.98632812 C43.13381321 347.89327855 44.04935171 349.80208063 44.96484375 351.7109375 C48.45384023 359.01844162 48.45384023 359.01844162 52.41015625 366.078125 C54.00837188 369.01538615 54.47767645 370.58286247 54.3125 373.875 C54.28800781 374.63554687 54.26351563 375.39609375 54.23828125 376.1796875 C54 378 54 378 53 379 C52.87123486 380.96366835 52.74566493 382.92802956 52.671875 384.89453125 C51.63022043 388.15878599 49.84241232 389.12214173 47 391 C44.05423799 391.96815305 41.06754768 392.49684444 38.015625 393.0234375 C37.13416809 393.18709808 36.25271118 393.35075867 35.34454346 393.51937866 C32.56574583 394.02971677 29.78371074 394.51724653 27 395 C25.72298218 395.22629089 25.72298218 395.22629089 24.42016602 395.45715332 C18.20405046 396.55781713 11.97869709 397.59826058 5.75 398.625 C4.75298065 398.79030212 3.7559613 398.95560425 2.72872925 399.12591553 C-25.27741376 403.76577634 -53.32778027 408.12865679 -81.38562012 412.44287109 C-84.7917546 412.96790057 -88.19725994 413.4967985 -91.60253906 414.02734375 C-96.39960301 414.77416706 -101.19820247 415.50998125 -105.99856567 416.23529053 C-107.66944415 416.48925849 -109.33978829 416.74677513 -111.00949097 417.00836182 C-139.37129452 421.43983606 -139.37129452 421.43983606 -148 416 C-152.198385 412.90119202 -153.73540014 409.53398669 -155.6484375 404.80859375 C-156.09106934 403.72247803 -156.53370117 402.6363623 -156.98974609 401.51733398 C-157.32312988 400.68661377 -157.65651367 399.85589355 -158 399 C-158.55169861 398.98160568 -159.10339722 398.96321136 -159.67181396 398.94425964 C-211.13790999 397.21036984 -211.13790999 397.21036984 -235 394 C-236.78244772 393.78299523 -238.56499662 393.56681956 -240.34765625 393.3515625 C-249.39084843 392.1954382 -258.13064077 390.36216219 -266.9375 388 C-267.86804199 387.75080811 -268.79858398 387.50161621 -269.75732422 387.24487305 C-274.29650929 385.96657753 -278.00672465 384.57259085 -282 382 C-283.2684375 382.0309375 -283.2684375 382.0309375 -284.5625 382.0625 C-287 382 -287 382 -289.25 380.375 C-294.97351009 372.60737916 -292.02865391 358.44924033 -290.76171875 349.5234375 C-288.28897739 333.89180591 -283.85552747 318.67337144 -277.83203125 304.05859375 C-277.16000953 302.39589212 -276.56711462 300.70134386 -276 299 C-276.64324219 298.64550781 -277.28648437 298.29101562 -277.94921875 297.92578125 C-300.64241006 284.55589821 -314.33236842 261.06531711 -321 236.1328125 C-327.71208751 209.34661141 -323.00157185 181.01474716 -312 156 C-312.928125 156.0825 -313.85625 156.165 -314.8125 156.25 C-324.44893015 156.19159739 -331.97082433 151.0477436 -339 145 C-339.81597656 144.40445313 -340.63195312 143.80890625 -341.47265625 143.1953125 C-344.45976703 140.60063513 -346.48781163 137.70062328 -348.5625 134.375 C-348.95381104 133.75399414 -349.34512207 133.13298828 -349.74829102 132.49316406 C-359.30037989 116.99377462 -361.84094932 97.71883777 -358.3125 79.8515625 C-353.90686418 63.51399634 -345.67138513 50.06238631 -334 38 C-333.32324219 37.29746094 -332.64648438 36.59492187 -331.94921875 35.87109375 C-318.59605398 23.02087304 -299.50541529 16.51667638 -281.14453125 16.79296875 C-262.34731721 18.0305493 -248.14660931 25.71554054 -235.6875 39.5625 C-232.74578438 43.13278734 -230.33855705 47.01617494 -228 51 C-227.15179688 50.49210937 -226.30359375 49.98421875 -225.4296875 49.4609375 C-188.62201746 27.73046947 -141.41173893 19.16446823 -99.61328125 29.8671875 C-97.38130577 30.52090417 -95.18587466 31.20769068 -93 32 C-93.103125 31.0925 -93.20625 30.185 -93.3125 29.25 C-93.29223686 19.24000882 -86.44477119 8.61922467 -79.7109375 1.62109375 C-57.40463463 -19.33854378 -24.06163411 -17.45976514 0 0 Z " fill="#FCEFED" transform="translate(388,21)"/>
<path d="M0 0 C15.98554062 12.84051571 28.16036543 30.63181021 30.8125 51.3125 C31.66149187 63.85281746 28.65264627 77.34535005 20.640625 87.21875 C16.56121387 91.64782495 12.19482698 94.97190427 7 98 C7.47308594 98.49886719 7.94617188 98.99773437 8.43359375 99.51171875 C14.31373386 105.89619837 19.20291844 112.79131845 24 120 C24.59683594 120.86109375 25.19367188 121.7221875 25.80859375 122.609375 C44.12709104 149.85443795 53.69811148 183.815508 47.375 216.375 C43.70397229 233.4057282 36.14380606 248.59662036 25 262 C26.0828125 262.34224609 26.0828125 262.34224609 27.1875 262.69140625 C35.45196938 266.5366802 40.79122044 275.44924797 44.16015625 283.58984375 C46.82344385 291.23285979 47.03851876 299.10703551 44.1796875 306.7578125 C40.89240781 313.00582092 36.59149528 317.53651873 30 320 C33.98370896 328.70554882 38.05361387 337.36428463 42.21435547 345.98632812 C43.13381321 347.89327855 44.04935171 349.80208063 44.96484375 351.7109375 C48.45384023 359.01844162 48.45384023 359.01844162 52.41015625 366.078125 C54.00837188 369.01538615 54.47767645 370.58286247 54.3125 373.875 C54.28800781 374.63554687 54.26351563 375.39609375 54.23828125 376.1796875 C54 378 54 378 53 379 C52.87123486 380.96366835 52.74566493 382.92802956 52.671875 384.89453125 C51.63022043 388.15878599 49.84241232 389.12214173 47 391 C44.05423799 391.96815305 41.06754768 392.49684444 38.015625 393.0234375 C37.13416809 393.18709808 36.25271118 393.35075867 35.34454346 393.51937866 C32.56574583 394.02971677 29.78371074 394.51724653 27 395 C25.72298218 395.22629089 25.72298218 395.22629089 24.42016602 395.45715332 C18.20405046 396.55781713 11.97869709 397.59826058 5.75 398.625 C4.75298065 398.79030212 3.7559613 398.95560425 2.72872925 399.12591553 C-25.27741376 403.76577634 -53.32778027 408.12865679 -81.38562012 412.44287109 C-84.7917546 412.96790057 -88.19725994 413.4967985 -91.60253906 414.02734375 C-96.39960301 414.77416706 -101.19820247 415.50998125 -105.99856567 416.23529053 C-107.66944415 416.48925849 -109.33978829 416.74677513 -111.00949097 417.00836182 C-139.37129452 421.43983606 -139.37129452 421.43983606 -148 416 C-154.99550399 410.46867127 -157.11810871 402.31345065 -159.19140625 393.96875 C-160.06126882 390.77505167 -161.09157339 387.66383941 -162.15063477 384.52880859 C-163.70924555 379.88836867 -165.1957023 375.22475712 -166.6875 370.5625 C-167.00783203 369.57056641 -167.32816406 368.57863281 -167.65820312 367.55664062 C-167.96048828 366.61111328 -168.26277344 365.66558594 -168.57421875 364.69140625 C-168.84838623 363.83748291 -169.12255371 362.98355957 -169.4050293 362.10375977 C-170 360 -170 360 -170 358 C-170.94875 358.433125 -171.8975 358.86625 -172.875 359.3125 C-185.58219504 364.72910233 -198.59952734 366.89831932 -212 363 C-212.625 360.625 -212.625 360.625 -213 358 C-209.92050233 354.92050233 -206.09327698 355.47236871 -201.9375 355.1875 C-183.90786121 353.63724265 -164.24407693 348.06904507 -151 335 C-147.63357065 330.78726159 -146.09642718 326.39992195 -146 321 C-147.48628282 316.38470071 -149.16267018 313.02335076 -153 310 C-155.77304038 309.13196845 -158.41332519 308.78534071 -161.3125 308.6875 C-162.03050781 308.65011719 -162.74851563 308.61273438 -163.48828125 308.57421875 C-166.25095123 308.87499025 -166.25095123 308.87499025 -169.125 310.9921875 C-173.79271858 313.81340506 -178.3636895 313.56128838 -183.6875 313.4375 C-184.6583252 313.4271875 -185.62915039 313.416875 -186.62939453 313.40625 C-193.77181686 313.24389509 -200.23116389 312.39908115 -207 310 C-207.625 308.125 -207.625 308.125 -208 306 C-206 304 -206 304 -204.12060547 303.77294922 C-203.37697754 303.78342285 -202.63334961 303.79389648 -201.8671875 303.8046875 C-201.06152344 303.81113281 -200.25585938 303.81757813 -199.42578125 303.82421875 C-198.58402344 303.84097656 -197.74226562 303.85773438 -196.875 303.875 C-196.02550781 303.88402344 -195.17601562 303.89304687 -194.30078125 303.90234375 C-192.20040116 303.92594353 -190.10016556 303.96181517 -188 304 C-189.98 302.02 -191.96 300.04 -194 298 C-194.70125 298.350625 -195.4025 298.70125 -196.125 299.0625 C-199.77887265 300.25398021 -201.33346598 300.22217801 -205 299 C-207.90700611 296.90888958 -210.43982382 294.49749767 -213 292 C-213.67417969 291.35289062 -214.34835938 290.70578125 -215.04296875 290.0390625 C-219.61388405 285.56540072 -223.86170619 280.87264657 -228 276 C-228.79277344 275.10796875 -229.58554688 274.2159375 -230.40234375 273.296875 C-231.21832031 272.35328125 -232.03429687 271.4096875 -232.875 270.4375 C-233.63554687 269.56996094 -234.39609375 268.70242188 -235.1796875 267.80859375 C-237.35566725 264.45123444 -237.81728457 261.97288942 -238 258 C-236.5625 255.5625 -236.5625 255.5625 -235 254 C-236.13068534 251.45595798 -237.21924052 249.76141473 -239.125 247.6875 C-241.59432745 244.14813065 -241.59541428 242.24232678 -241 238 C-237.91410244 231.82820488 -232.4469963 226.98202287 -226.5 223.5625 C-221.16053243 222.3611198 -216.94388821 222.19222954 -212.125 224.8125 C-209 227 -209 227 -207 230 C-206.09813965 230.43352783 -205.1962793 230.86705566 -204.26708984 231.3137207 C-200.34192524 233.33965942 -197.77876705 235.84037978 -194.7265625 238.98046875 C-194.15795502 239.55332108 -193.58934753 240.1261734 -193.00350952 240.71638489 C-191.2034567 242.53312179 -189.41416568 244.36004666 -187.625 246.1875 C-186.40043773 247.42712235 -185.17518406 248.6660621 -183.94921875 249.90429688 C-180.95808901 252.92835947 -177.97656094 255.96159915 -175 259 C-174.41605469 258.20207031 -173.83210937 257.40414063 -173.23046875 256.58203125 C-170.27952664 253.16596691 -167.3191445 252.52010641 -163 252 C-159.99027554 251.86467906 -157.00964359 251.87459818 -154 252 C-153.938125 251.0925 -153.87625 250.185 -153.8125 249.25 C-153 246 -153 246 -150.8125 243.625 C-147.41346449 241.66111282 -145.86279147 241.29050769 -142 242 C-140 243.66666667 -138 245.33333333 -136 247 C-132.74723247 247.41990073 -132.74723247 247.41990073 -130 247 C-129.54625 245.865625 -129.0925 244.73125 -128.625 243.5625 C-127 240 -127 240 -125 239 C-118.04770586 238.30477059 -118.04770586 238.30477059 -115.31640625 240.1171875 C-114.82011719 240.57351563 -114.32382812 241.02984375 -113.8125 241.5 C-111.26325094 244.25244496 -111.26325094 244.25244496 -108.125 244.3125 C-107.42375 244.209375 -106.7225 244.10625 -106 244 C-105.9175 243.2575 -105.835 242.515 -105.75 241.75 C-104.80632018 238.28984065 -103.955699 237.04625315 -101 235 C-95.96582467 234.2808321 -95.96582467 234.2808321 -93 235 C-91.29319053 236.62553283 -89.62339805 238.29115995 -88 240 C-84.78938212 240.41890218 -84.78938212 240.41890218 -82 240 C-81.9175 239.071875 -81.835 238.14375 -81.75 237.1875 C-81 234 -81 234 -79.375 232.125 C-76.01275048 230.53235549 -73.6795043 230.54813105 -70 231 C-67.0625 232.875 -67.0625 232.875 -65 235 C-65 235.66 -65 236.32 -65 237 C-63.02 237 -61.04 237 -59 237 C-58.9175 236.071875 -58.835 235.14375 -58.75 234.1875 C-58 231 -58 231 -56.4375 229.125 C-52.95837976 227.5192522 -49.71123554 227.16868324 -46 228 C-43.3125 230.5 -43.3125 230.5 -41 233 C-38.28836222 233.41986946 -38.28836222 233.41986946 -36 233 C-35.938125 232.2575 -35.87625 231.515 -35.8125 230.75 C-34.71192872 227.02498951 -33.32783116 225.9532922 -30 224 C-26.5 223.4375 -26.5 223.4375 -23 224 C-22.2678125 224.83660156 -21.535625 225.67320312 -20.78125 226.53515625 C-17.65094578 229.3093444 -16.20855241 229.42689919 -12.1171875 229.1953125 C-11.06917969 229.09863281 -11.06917969 229.09863281 -10 229 C-5.54570206 228.58908691 -2.80764558 228.37388445 0.90234375 231.25 C2.71759815 233.62977486 3.77245913 235.17132219 4.5625 238 C4.89894531 239.15242188 4.89894531 239.15242188 5.2421875 240.328125 C5.49226563 241.20984375 5.74234375 242.0915625 6 243 C6.35320312 244.08796875 6.70640625 245.1759375 7.0703125 246.296875 C10.26012489 256.15629512 10.26012489 256.15629512 10 261 C10.66 261 11.32 261 12 261 C12.26554687 260.40960938 12.53109375 259.81921875 12.8046875 259.2109375 C14.03090304 256.94283948 15.33351588 255.46647902 17.125 253.625 C35.05245372 233.49396343 38.49815356 206.89665431 37 181 C34.21864604 150.30209335 13.70986564 118.76724347 -7.28515625 97.21875 C-9.18170527 94.76490069 -9.6509542 93.05012326 -10 90 C-7.34037131 89.22427496 -5.11748256 88.95512623 -2.3125 88.8125 C3.07570482 88.13019473 7.04183489 85.64356049 11 82 C18.86733134 71.49904175 20.82605943 60.92630033 20 48 C16.99925191 30.78384357 5.46956064 16.4967148 -8.23046875 6.34765625 C-20.75370538 -1.89628344 -36.29616954 -5.42624271 -51.1015625 -2.59863281 C-62.09853391 0.00130659 -70.62520022 5.20428706 -76.79296875 14.78515625 C-80.90590064 22.04384602 -82.16613354 27.48195749 -82.0625 35.8125 C-82.05573242 36.85180664 -82.05573242 36.85180664 -82.04882812 37.91210938 C-82.03713156 39.60811068 -82.01919924 41.30406703 -82 43 C-83.5 44.1875 -83.5 44.1875 -86 45 C-87.91772958 44.3371326 -89.83230718 43.65764057 -91.703125 42.87207031 C-95.83478803 41.30337342 -100.16259396 40.65287052 -104.5 39.875 C-105.39847656 39.70613281 -106.29695312 39.53726563 -107.22265625 39.36328125 C-147.1873968 31.97533067 -190.87809501 39.25206334 -225 62 C-225.70491267 64.32206525 -226.37212429 66.65593068 -227 69 C-227.66 69.66 -228.32 70.32 -229 71 C-231.625 70.625 -231.625 70.625 -234 70 C-234.4021875 68.45892578 -234.4021875 68.45892578 -234.8125 66.88671875 C-237.38996334 57.56793726 -240.55163297 50.40322138 -247 43 C-247.5671875 42.32324219 -248.134375 41.64648438 -248.71875 40.94921875 C-253.08267309 36.14272799 -258.04725205 33.46975713 -264 31 C-265.08667969 30.51853516 -265.08667969 30.51853516 -266.1953125 30.02734375 C-280.00508473 24.85469387 -295.79194196 27.43647716 -309 33 C-322.43861711 39.2410948 -332.94212202 48.98171569 -340 62 C-340.70576172 63.2684375 -340.70576172 63.2684375 -341.42578125 64.5625 C-348.62533827 78.15458405 -351.68937066 94.65621568 -347.75 109.75 C-347.19303374 111.50856941 -346.61008763 113.25914651 -346 115 C-345.7215625 115.85335937 -345.443125 116.70671875 -345.15625 117.5859375 C-341.52322008 127.76468513 -334.23061689 137.07446707 -324.6328125 142.28515625 C-315.63531672 146.40040432 -307.45629268 147.43865188 -298 144 C-294.625 143.875 -294.625 143.875 -292 144 C-291.505 146.475 -291.505 146.475 -291 149 C-297.28571429 154.57142857 -297.28571429 154.57142857 -301 155 C-301.14308594 155.94166016 -301.14308594 155.94166016 -301.2890625 156.90234375 C-302.08079924 160.35205381 -303.22999953 163.56228308 -304.42553711 166.8894043 C-314.32055268 194.74760063 -315.67848497 224.70556721 -303 252 C-302.7323584 252.59087402 -302.4647168 253.18174805 -302.18896484 253.79052734 C-297.41245041 264.16076902 -291.17813546 272.08446522 -283 280 C-281.91332031 281.06541016 -281.91332031 281.06541016 -280.8046875 282.15234375 C-272.70743867 289.64311848 -263.19364438 294.04164325 -253 298 C-252.957279 299.66611905 -252.95936168 301.33382885 -253 303 C-254.57960269 304.57960269 -256.19536816 304.16986544 -258.375 304.1875 C-259.16648437 304.20167969 -259.95796875 304.21585937 -260.7734375 304.23046875 C-263 304 -263 304 -266 302 C-266.17015625 302.52207031 -266.3403125 303.04414063 -266.515625 303.58203125 C-267.87834262 307.7209236 -269.30946255 311.80842101 -270.875 315.875 C-277.53935475 334.15071129 -280.1082671 352.28990777 -280.65917969 371.64697266 C-280.69043945 372.69675293 -280.72169922 373.7465332 -280.75390625 374.828125 C-280.78979858 376.2497998 -280.78979858 376.2497998 -280.82641602 377.70019531 C-281 380 -281 380 -282 382 C-285.20935531 382.35659503 -286.58988985 382.29619066 -289.25 380.375 C-294.97351009 372.60737916 -292.02865391 358.44924033 -290.76171875 349.5234375 C-288.28897739 333.89180591 -283.85552747 318.67337144 -277.83203125 304.05859375 C-277.16000953 302.39589212 -276.56711462 300.70134386 -276 299 C-276.64324219 298.64550781 -277.28648437 298.29101562 -277.94921875 297.92578125 C-300.64241006 284.55589821 -314.33236842 261.06531711 -321 236.1328125 C-327.71208751 209.34661141 -323.00157185 181.01474716 -312 156 C-312.928125 156.0825 -313.85625 156.165 -314.8125 156.25 C-324.44893015 156.19159739 -331.97082433 151.0477436 -339 145 C-339.81597656 144.40445313 -340.63195312 143.80890625 -341.47265625 143.1953125 C-344.45976703 140.60063513 -346.48781163 137.70062328 -348.5625 134.375 C-348.95381104 133.75399414 -349.34512207 133.13298828 -349.74829102 132.49316406 C-359.30037989 116.99377462 -361.84094932 97.71883777 -358.3125 79.8515625 C-353.90686418 63.51399634 -345.67138513 50.06238631 -334 38 C-333.32324219 37.29746094 -332.64648438 36.59492187 -331.94921875 35.87109375 C-318.59605398 23.02087304 -299.50541529 16.51667638 -281.14453125 16.79296875 C-262.34731721 18.0305493 -248.14660931 25.71554054 -235.6875 39.5625 C-232.74578438 43.13278734 -230.33855705 47.01617494 -228 51 C-227.15179688 50.49210937 -226.30359375 49.98421875 -225.4296875 49.4609375 C-188.62201746 27.73046947 -141.41173893 19.16446823 -99.61328125 29.8671875 C-97.38130577 30.52090417 -95.18587466 31.20769068 -93 32 C-93.103125 31.0925 -93.20625 30.185 -93.3125 29.25 C-93.29223686 19.24000882 -86.44477119 8.61922467 -79.7109375 1.62109375 C-57.40463463 -19.33854378 -24.06163411 -17.45976514 0 0 Z " fill="#111111" transform="translate(388,21)"/>
<path d="M0 0 C0.82788086 1.89501953 0.82788086 1.89501953 1.46484375 4.3828125 C1.7057373 5.29643555 1.94663086 6.21005859 2.19482422 7.15136719 C2.56244873 8.62331543 2.56244873 8.62331543 2.9375 10.125 C3.19547363 11.11661133 3.45344727 12.10822266 3.71923828 13.12988281 C4.24100915 15.13709346 4.7579642 17.14556233 5.27001953 19.15527344 C5.91917781 21.68503673 6.58975002 24.20702652 7.27734375 26.7265625 C7.46498291 27.41476074 7.65262207 28.10295898 7.84594727 28.81201172 C8.10782837 29.77131592 8.10782837 29.77131592 8.375 30.75 C10 36.74796748 10 36.74796748 10 39 C9.0925 39.598125 8.185 40.19625 7.25 40.8125 C2.56563938 43.96543504 -0.47083088 47.5204773 -2 53 C-2.59483424 58.94834236 -1.60863387 62.68144036 1.02734375 68.01953125 C2 70 2 70 3 73 C4.71519747 74.02651373 4.71519747 74.02651373 7 75 C8.5778125 75.9590625 8.5778125 75.9590625 10.1875 76.9375 C12.9416227 78.58747921 15.22718372 79.25240072 18.359375 79.8671875 C21.53239195 80.90477538 22.76550212 81.6709192 24.72387695 84.41918945 C26.32693497 87.62661112 27.71895119 90.86304218 29.0625 94.1875 C30.08541009 96.55808193 31.11014723 98.92787633 32.13671875 101.296875 C32.62446777 102.44865234 33.1122168 103.60042969 33.61474609 104.78710938 C35.39374668 108.91323692 37.33705206 112.93431633 39.375 116.9375 C39.68824219 117.56197021 40.00148438 118.18644043 40.32421875 118.82983398 C42.72659202 123.57875615 45.33596519 128.19834178 48.06640625 132.765625 C49 135 49 135 48.77734375 137.171875 C48 139 48 139 46 141 C46 142.32 46 143.64 46 145 C44.35 145 42.7 145 41 145 C41 143.02 41 141.04 41 139 C35.62720534 138.87532742 30.85715413 139.2381425 25.5625 140.3125 C24.16166971 140.59090943 22.76061986 140.86821593 21.359375 141.14453125 C20.64330078 141.28713379 19.92722656 141.42973633 19.18945312 141.57666016 C16.29091324 142.13710487 13.38330106 142.63515095 10.47314453 143.13110352 C-4.2034051 145.63689634 -18.57229198 149.35794936 -33 153 C-30.69 153.66 -28.38 154.32 -26 155 C-26 155.66 -26 156.32 -26 157 C-33.06126043 158.45554319 -40.13825987 159.75406703 -47.25 160.9375 C-48.83059204 161.20071045 -48.83059204 161.20071045 -50.44311523 161.46923828 C-57.82588945 162.68152557 -65.21730416 163.74383739 -72.63574219 164.71020508 C-78.95785237 165.54859121 -85.25880234 166.49447183 -91.55859375 167.484375 C-92.83900291 167.68487961 -92.83900291 167.68487961 -94.14527893 167.88943481 C-98.43801955 168.56248459 -102.72957063 169.24212824 -107.01977539 169.93115234 C-134.05894282 174.22386473 -134.05894282 174.22386473 -140 171 C-141.48118179 168.44699256 -142.56213921 166.16368017 -143.625 163.4375 C-143.94984375 162.63771729 -144.2746875 161.83793457 -144.609375 161.01391602 C-159 124.58098416 -159 124.58098416 -159 117 C-156.525 116.505 -156.525 116.505 -154 116 C-153.81566406 116.64839844 -153.63132813 117.29679687 -153.44140625 117.96484375 C-148.87237201 133.4183329 -143.77332025 149.0332416 -136.625 163.5 C-136.30370117 164.15782471 -135.98240234 164.81564941 -135.65136719 165.4934082 C-133.76355605 169.2533789 -133.76355605 169.2533789 -130 171 C-132.31928118 163.61553282 -135.23555236 156.59772187 -138.3125 149.5 C-141.90035466 141.14702587 -145.3360163 132.80805995 -148.16137695 124.1640625 C-149.38975927 120.45617668 -150.85775306 117.26941756 -153 114 C-150.36 112.02 -147.72 110.04 -145 108 C-140.96430739 110.0178463 -138.25774793 112.42373427 -135.0625 115.5 C-120.7670674 128.87626773 -106.3541778 138.0619039 -87.34375 143.30859375 C-85 144 -85 144 -84 145 C-81.66055264 144.71269945 -79.3260857 144.38063221 -77 144 C-77.53598721 138.22037888 -78.70404088 133.33159765 -80.8125 127.9375 C-81.06064453 127.26912109 -81.30878906 126.60074219 -81.56445312 125.91210938 C-83.31779343 121.32130231 -85.52357345 117.24088047 -88 113 C-88.5878125 111.3603125 -88.5878125 111.3603125 -89.1875 109.6875 C-91.23039281 104.81681346 -94.96658445 101.2957599 -98.56347656 97.51757812 C-100.12839403 95.86436144 -101.67064406 94.19179986 -103.2109375 92.515625 C-109.87408741 85.2871744 -116.66307372 78.22480518 -123.7331543 71.39160156 C-125.19151371 69.96367273 -126.60101922 68.48615131 -128 67 C-128 66.34 -128 65.68 -128 65 C-128.66 65 -129.32 65 -130 65 C-131.29150391 63.66967773 -131.29150391 63.66967773 -132.8515625 61.74609375 C-136.00164622 58.03506977 -139.3738779 54.63586202 -142.8984375 51.28515625 C-143.96520141 50.25883516 -145.03160248 49.23213682 -146.09765625 48.20507812 C-147.74070847 46.62381885 -149.38855825 45.04983814 -151.05517578 43.4934082 C-161.56335497 33.65141372 -161.56335497 33.65141372 -162.2265625 27.74609375 C-162.15179688 26.50988281 -162.07703125 25.27367187 -162 24 C-153.67181126 21.35012177 -144.77121852 19.4152521 -136 20 C-135 21 -135 21 -134.9375 23.5625 C-134.958125 24.366875 -134.97875 25.17125 -135 26 C-136.65 26.66 -138.3 27.32 -140 28 C-140 29.98 -140 31.96 -140 34 C-134.71800407 35.19988045 -134.71800407 35.19988045 -130 33 C-129.41312216 29.65386488 -129.41312216 29.65386488 -129.3125 25.875 C-129.24675781 24.59367187 -129.18101562 23.31234375 -129.11328125 21.9921875 C-129.07589844 21.00476563 -129.03851563 20.01734375 -129 19 C-122.88595404 17.14256832 -117.41481258 15.57234583 -111 16 C-111 18.31 -111 20.62 -111 23 C-113.97 23.495 -113.97 23.495 -117 24 C-116.03223902 27.79547921 -116.03223902 27.79547921 -114 31 C-111.04182893 31.25005386 -111.04182893 31.25005386 -108 31 C-105.64358476 29.08593338 -105.64358476 29.08593338 -105.8046875 25.7421875 C-105.82789063 24.46601563 -105.85109375 23.18984375 -105.875 21.875 C-105.89304687 20.59367187 -105.91109375 19.31234375 -105.9296875 17.9921875 C-105.95289063 17.00476563 -105.97609375 16.01734375 -106 15 C-103.77228658 14.49356447 -101.54275924 13.9951038 -99.3125 13.5 C-97.45044922 13.08234375 -97.45044922 13.08234375 -95.55078125 12.65625 C-92.57601782 12.10645874 -90.00631398 11.86204295 -87 12 C-86.6875 14.8125 -86.6875 14.8125 -87 18 C-89.5 19.875 -89.5 19.875 -92 21 C-91.62095792 24.29075996 -91.62095792 24.29075996 -90 27 C-85.34934387 26.55206891 -85.34934387 26.55206891 -81 25 C-81 20.38 -81 15.76 -81 11 C-69.28571429 8.71428571 -69.28571429 8.71428571 -64 9 C-64 10.98 -64 12.96 -64 15 C-65.32 15.66 -66.64 16.32 -68 17 C-67.505 19.97 -67.505 19.97 -67 23 C-63.58343976 23.16677282 -63.58343976 23.16677282 -60 23 C-57.64358476 21.08593338 -57.64358476 21.08593338 -57.8046875 17.7421875 C-57.82789063 16.46601563 -57.85109375 15.18984375 -57.875 13.875 C-57.91625 11.60625 -57.9575 9.3375 -58 7 C-49.09 6.01 -49.09 6.01 -40 5 C-40 6.98 -40 8.96 -40 11 C-41.65 11.66 -43.3 12.32 -45 13 C-44.505 15.97 -44.505 15.97 -44 19 C-41.38118693 19.72744808 -39.5366003 20.13415008 -36.875 19.46875 C-34.63813259 18.04955984 -34.63813259 18.04955984 -34.390625 14.7421875 C-34.34421875 13.46601563 -34.2978125 12.18984375 -34.25 10.875 C-34.1675 8.60625 -34.085 6.3375 -34 4 C-28.72 3.01 -23.44 2.02 -18 1 C-18 2.98 -18 4.96 -18 7 C-19.32 7.66 -20.64 8.32 -22 9 C-22.16687448 11.41645782 -22.16687448 11.41645782 -22 14 C-20.18190523 16.25195569 -20.18190523 16.25195569 -17.5625 16.1875 C-14.88060897 16.09695513 -14.88060897 16.09695513 -12 15 C-12 10.05 -12 5.1 -12 0 C-3.375 -1.125 -3.375 -1.125 0 0 Z " fill="#FCFCFB" transform="translate(384,258)"/>
<path d="M0 0 C4.86703319 4.10993914 9.43831012 9.41440068 10.23828125 15.9453125 C10.48529591 23.19974317 8.84620226 28.67846457 4.08203125 34.23828125 C-2.03978654 40.16506768 -8.14680805 42.74897283 -16.625 43.1875 C-17.40875 43.125625 -18.1925 43.06375 -19 43 C-18.54542662 45.34862912 -18.08895362 47.67722543 -17.453125 49.984375 C-15.28979979 58.22839812 -15.62929329 65.72216928 -19.8359375 73.2578125 C-21.59697151 75.893454 -23.62581226 77.90845365 -26 80 C-26.94875 80.86625 -27.8975 81.7325 -28.875 82.625 C-34.61618759 86.98830257 -40.77419943 89.23605156 -48 89 C-51.5 87.75 -51.5 87.75 -54 86 C-54.33 85.01 -54.66 84.02 -55 83 C-59.8034467 80.11793198 -64.47856724 79.54862812 -70 80 C-72.01151741 80.63106429 -74.01363702 81.29373761 -76 82 C-78.5625 82.5 -78.5625 82.5 -81 82 C-86.8050164 76.47815513 -90.17066182 69.6028943 -90.5 61.5625 C-89.99376468 50.54804668 -84.77332181 43.47117856 -77 36 C-66.63572279 27.04903332 -52.86187676 27.48032821 -40 28 C-39.98582031 27.09378906 -39.97164062 26.18757813 -39.95703125 25.25390625 C-39.60676526 16.30792343 -38.59696283 9.76150736 -32.25390625 3.19140625 C-22.77059542 -5.31298217 -10.98703154 -6.46172161 0 0 Z " fill="#F9C9CB" transform="translate(234,165)"/>
<path d="M0 0 C6.17459637 4.96540458 9.30708115 10.03146475 10.6875 17.9375 C10.8421875 19.4534375 10.8421875 19.4534375 11 21 C12.24716797 20.36771484 12.24716797 20.36771484 13.51953125 19.72265625 C15.14955078 18.90087891 15.14955078 18.90087891 16.8125 18.0625 C17.89144531 17.51722656 18.97039062 16.97195312 20.08203125 16.41015625 C28.24544176 12.46505425 39.25955595 12.72203053 47.875 15.4375 C56.12307463 18.93857095 62.32569987 24.88545802 66 33 C66.391875 33.763125 66.78375 34.52625 67.1875 35.3125 C69.61115462 43.32920373 67.54217035 50.61952931 64 58 C62.47695272 60.36413309 61.03425924 62.01927389 59 64 C58.34 64 57.68 64 57 64 C57 64.66 57 65.32 57 66 C45.51262632 72.28554409 33.17040271 75.30273269 20.1015625 72.34375 C11.34870248 69.21965227 4.82529296 63.02274304 0.3125 55 C-1.82341808 49.91606998 -1.23956618 44.40354837 -1 39 C-1.68449219 39.15855469 -2.36898437 39.31710938 -3.07421875 39.48046875 C-10.73151398 40.84017538 -19.4541143 41.48019073 -26.3203125 37.33984375 C-31.27612233 33.38672102 -35.60263437 28.49312111 -36.3359375 22.046875 C-36.41661123 15.23801249 -36.44528119 9.4510571 -32 4 C-22.79132214 -4.75804043 -11.25683197 -6.49432613 0 0 Z " fill="#F9C7CA" transform="translate(342,148)"/>
<path d="M0 0 C6.53508247 0.33229233 10.7231066 1.57896173 15.4152832 6.47753906 C19.68984427 11.38705011 22.99255592 16.62604239 26.29882812 22.21484375 C28.82561113 26.39022293 31.39699362 29.69884977 35 33 C33.9327741 35.61955447 32.82801835 37.17136962 30.8046875 39.1875 C27.00453233 42.99824056 23.62292979 47.12115754 20.19726562 51.26757812 C18.83987887 52.88107558 17.42430509 54.44525634 16 56 C15.34 56 14.68 56 14 56 C13.9071875 57.051875 13.9071875 57.051875 13.8125 58.125 C12.71162059 62.02041945 10.8131575 64.1229071 8 67 C1.94245117 70.08081521 -5.60639722 70.01880644 -12.15625 68.5 C-13.875 67.8125 -13.875 67.8125 -17 66 C-17.59296875 65.6596875 -18.1859375 65.319375 -18.796875 64.96875 C-23.69221365 61.8725529 -26.38705952 58.11102643 -29 53 C-29.32097656 52.39414063 -29.64195313 51.78828125 -29.97265625 51.1640625 C-33.51431082 43.35594964 -33.04684783 34.26924569 -30.4375 26.25 C-25.91736896 15.35410518 -17.75168113 7.67464397 -7 3 C-5.00379834 2.32204472 -3.00461299 1.65266469 -1 1 C-0.67 0.67 -0.34 0.34 0 0 Z " fill="#A0D5F4" transform="translate(94,78)"/>
<path d="M0 0 C2.3125 0.8125 2.3125 0.8125 3.3125 1.8125 C4.95693557 1.91994044 6.60332756 1.99783404 8.25 2.0625 C16.51475973 2.74944107 24.75737785 6.48959673 30.3125 12.8125 C36.78705485 21.62775016 40.58475501 29.73260827 39.3125 40.8125 C37.17037629 50.25323681 33.30707967 54.62447043 25.375 59.6875 C21.58126119 61.08111834 18.26422071 61.64683643 14.3125 60.8125 C11.55035124 59.40270762 9.68290774 57.88660677 7.3125 55.8125 C7.3125 55.1525 7.3125 54.4925 7.3125 53.8125 C6.59578125 53.56113281 5.8790625 53.30976562 5.140625 53.05078125 C2.05888245 51.70145475 -0.26767826 50.04139879 -2.9375 48 C-7.65933513 44.48264927 -12.45417779 41.50023091 -17.6875 38.8125 C-17.24912143 35.83152571 -16.60593952 33.65435489 -15.21484375 30.95703125 C-13.50841666 27.44379901 -12.8928741 24.34526556 -12.25 20.5 C-10.9324821 13.28240864 -9.13649362 7.13049135 -4.75 1.1875 C-2.6875 -0.1875 -2.6875 -0.1875 0 0 Z " fill="#9ED4F4" transform="translate(355.6875,40.1875)"/>
<path d="M0 0 C2.24571953 0.82925192 3.35718546 1.70776839 5.03986073 3.39549351 C5.60740574 3.95746937 6.17495075 4.51944523 6.7596941 5.09845066 C7.3701659 5.71813725 7.9806377 6.33782383 8.60960865 6.9762888 C9.26219151 7.62682728 9.91477436 8.27736576 10.58713245 8.94761753 C12.74672953 11.10420244 14.89537759 13.27135575 17.04393482 15.43893528 C18.5454414 16.94350074 20.04754056 18.44747504 21.55020618 19.95088291 C24.70285269 23.10813635 27.85052204 26.2702396 30.99437428 29.43624973 C35.00893722 33.47897368 39.03201103 37.51308598 43.05843544 41.543993 C46.91092493 45.4016635 50.75872409 49.26399946 54.60643482 53.12643528 C55.33467772 53.8565589 56.06292061 54.58668251 56.81323147 55.33893108 C58.89508719 57.42772877 60.97354022 59.51985357 63.0510149 61.61300755 C63.65541401 62.21852451 64.25981312 62.82404148 64.88252735 63.44790745 C68.54252007 67.14418302 72.01565491 70.95827964 75.40261841 74.90655518 C77.82060102 77.65133473 80.40673146 80.19370258 83.02440357 82.74752903 C81.48796375 86.70992646 79.01819472 88.60352701 75.71190357 91.18502903 C71.89568924 94.17864873 68.39998409 97.26127374 65.02440357 100.74752903 C65.67480684 97.93121973 66.55673947 95.31986693 67.58690357 92.62252903 C69.75016289 86.10062346 70.26556692 79.81494074 67.39940357 73.43502903 C63.89553182 67.33706276 58.65433293 63.84700666 52.02440357 61.74752903 C45.22164471 60.93476079 40.27464279 62.16122315 34.02440357 64.74752903 C30.02440357 64.74752903 30.02440357 64.74752903 27.66185474 62.8549509 C26.80567554 61.98418919 25.94949635 61.11342747 25.06737232 60.21627903 C24.60132084 59.74693943 24.13526936 59.27759983 23.6550951 58.79403782 C22.16444854 57.28764911 20.68846627 55.76771141 19.21190357 54.24752903 C18.23035261 53.25447995 17.24793878 52.26228295 16.26463795 51.27096653 C11.49595721 46.44124267 6.86331797 41.52514991 2.43968678 36.37448215 C0.72345154 34.40156657 -1.0948526 32.56341962 -2.97559643 30.74752903 C-8.38576627 25.41075296 -13.25107225 19.69426707 -17.97559643 13.74752903 C-4.1839863 -0.53469173 -4.1839863 -0.53469173 0 0 Z " fill="#BEBFC0" transform="translate(180.97559642791748,260.2524709701538)"/>
<path d="M0 0 C4.86703319 4.10993914 9.43831012 9.41440068 10.23828125 15.9453125 C10.48600036 23.22043174 8.86954743 28.77591389 3.9765625 34.2734375 C-2.97849335 40.84869508 -8.98710455 42.41124948 -18.4296875 42.1796875 C-25.20226764 41.70622445 -30.12251957 38.55375385 -35 34 C-38.88341833 27.73642205 -39.9296734 21.27709865 -39 14 C-36.44542892 6.8403277 -31.58622454 1.5167236 -24.95703125 -2.12109375 C-16.4688129 -5.93316786 -7.74222306 -4.5533764 0 0 Z " fill="#040405" transform="translate(234,165)"/>
<path d="M0 0 C5.63527821 4.53170289 9.36381558 9.23219094 10.34765625 16.60546875 C10.71361961 23.40863383 9.49129767 27.85746416 5 33 C-0.71907113 38.84672897 -4.54868862 40.14238546 -12.75 40.3125 C-19.88563223 40.23847892 -24.56824 39.31634206 -29.7421875 34.31640625 C-35.31244822 28.11982435 -36.47320474 23.62204636 -36.3046875 15.26171875 C-35.7861654 9.71087324 -34.20654999 6.09856988 -30.1640625 2.25390625 C-21.01604572 -5.05399221 -10.33852879 -5.96453584 0 0 Z " fill="#050505" transform="translate(342,148)"/>
<path d="M0 0 C3.75167643 2.75389015 6.75366859 6.18311844 8.8359375 10.34765625 C9.26606377 15.83176621 8.54229818 19.54604859 5.8359375 24.34765625 C1.07742917 29.73805322 -5.49890306 33.6243079 -12.63769531 34.73120117 C-15.1793917 34.88142844 -17.68116567 34.89439651 -20.2265625 34.84765625 C-21.07283203 34.863125 -21.91910156 34.87859375 -22.79101562 34.89453125 C-29.71129181 34.85184643 -35.02994891 33.16657435 -40.22265625 28.49609375 C-40.67769531 27.91085938 -41.13273438 27.325625 -41.6015625 26.72265625 C-42.07464844 26.13226563 -42.54773438 25.541875 -43.03515625 24.93359375 C-45.66124708 21.24434505 -45.36088774 18.40660552 -44.84765625 14.015625 C-43.38554298 8.30920578 -39.51583127 4.79767319 -34.6171875 1.77734375 C-24.43665784 -3.49364054 -10.55464118 -5.64127373 0 0 Z " fill="#A0D4F5" transform="translate(294.1640625,161.65234375)"/>
<path d="M0 0 C1 1 1 1 1.4375 4.5 C1.623125 5.655 1.80875 6.81 2 8 C5.14341993 9.57170996 8.55771451 9.23175783 12 9 C12.99 8.67 13.98 8.34 15 8 C15.33 5.69 15.66 3.38 16 1 C18.375 0.375 18.375 0.375 21 0 C23 2 23 2 23.5 4.6875 C22.81026352 9.25700415 20.52665609 12.06381615 17 15 C14.796875 15.69921875 14.796875 15.69921875 13 16 C13.12375 17.299375 13.2475 18.59875 13.375 19.9375 C13.375 25.84282861 10.88981597 29.70072972 7 34 C2.69212425 37.02467872 -0.78617551 37.65172806 -6 37 C-10.82604542 34.49045638 -13.88384348 31.36261912 -17 27 C-17.8125 24.125 -17.8125 24.125 -18 22 C-18.86625 21.979375 -19.7325 21.95875 -20.625 21.9375 C-25.24406316 20.6544269 -27.63911376 18.13808473 -30 14 C-29.875 11.0625 -29.875 11.0625 -29 9 C-27.68 8.67 -26.36 8.34 -25 8 C-24.34 9.65 -23.68 11.3 -23 13 C-17.0695344 14.09384143 -13.28794036 14.43716124 -8 11 C-6.74050951 9.96593327 -6.74050951 9.96593327 -6.90234375 7.71484375 C-6.91394531 6.79832031 -6.92554688 5.88179687 -6.9375 4.9375 C-6.94652344 4.01839844 -6.95554687 3.09929687 -6.96484375 2.15234375 C-6.97644531 1.44207031 -6.98804688 0.73179687 -7 0 C-4.31633121 -1.3418344 -2.84719317 -0.73004953 0 0 Z " fill="#0B0A0B" transform="translate(285,199)"/>
<path d="M0 0 C7.56382744 2.12732647 13.25039179 8.39588929 17.03515625 15.03515625 C19.81518629 20.69651297 21.06083454 26.75286328 20 33 C18.03958875 37.49098194 15.37599666 41.58565702 11 44 C10.34 44 9.68 44 9 44 C9 43.34 9 42.68 9 42 C8.27554687 42.03480469 7.55109375 42.06960938 6.8046875 42.10546875 C-3.25789069 42.38722094 -3.25789069 42.38722094 -8 39 C-11.76343132 35.24682326 -13.80450032 32.07229664 -14.3125 26.6875 C-13.93790854 22.26732079 -12.83614013 20.37270719 -10 17 C-5.90728477 13.70309051 -2.08903031 13.43127376 3 13 C3.33 11.68 3.66 10.36 4 9 C3.030625 8.7525 2.06125 8.505 1.0625 8.25 C-2 7 -2 7 -3.0625 5.0625 C-3 3 -3 3 -1.5625 1.25 C-1.046875 0.8375 -0.53125 0.425 0 0 Z " fill="#F9EEEC" transform="translate(404,288)"/>
<path d="M0 0 C4.98316481 2.18923926 8.08431331 5.95985259 11.75 9.875 C12.79607422 10.95587891 12.79607422 10.95587891 13.86328125 12.05859375 C14.52199219 12.75855469 15.18070312 13.45851563 15.859375 14.1796875 C16.46233398 14.81632324 17.06529297 15.45295898 17.68652344 16.10888672 C19 18 19 18 19 22 C15.76638971 27.18799013 10.7085703 31.19692399 6 35 C1.99015152 33.32191256 -1.06488021 30.56372917 -4.3125 27.75 C-4.88701904 27.25781982 -5.46153809 26.76563965 -6.0534668 26.25854492 C-7.7052962 24.84245774 -9.35281277 23.42148088 -11 22 C-12.43718263 20.77046227 -13.87459932 19.54119792 -15.3125 18.3125 C-16.199375 17.549375 -17.08625 16.78625 -18 16 C-16.85286384 14.85286384 -15.70506872 13.70638189 -14.5546875 12.5625 C-13.46620229 11.46854502 -12.38894015 10.3633609 -11.3203125 9.25 C-7.77878213 5.59828868 -4.34587558 2.64992413 0 0 Z " fill="#76A9D3" transform="translate(267,348)"/>
<path d="M0 0 C0.93423645 3.01031744 1.04449911 3.86650268 0 7 C0.99 7.33 1.98 7.66 3 8 C1.81035645 8.20157715 0.62071289 8.4031543 -0.60498047 8.61083984 C-5.05949722 9.3660307 -9.51368178 10.12316571 -13.96777344 10.88085938 C-15.88793209 11.2072283 -17.80817795 11.53308456 -19.72851562 11.85839844 C-22.50414284 12.32869702 -25.27944106 12.80089781 -28.0546875 13.2734375 C-28.8998996 13.41623138 -29.74511169 13.55902527 -30.61593628 13.70614624 C-34.85900054 14.43045747 -39.08302175 15.20806116 -43.30078125 16.06835938 C-46.57411751 16.73184595 -49.80590056 17.3048071 -53.1328125 17.6328125 C-54.3703125 17.75849609 -54.3703125 17.75849609 -55.6328125 17.88671875 C-56.45523437 17.96535156 -57.27765625 18.04398437 -58.125 18.125 C-58.98609375 18.21136719 -59.8471875 18.29773438 -60.734375 18.38671875 C-62.82248294 18.59552954 -64.9111826 18.79840982 -67 19 C-67 18.34 -67 17.68 -67 17 C-69.64 16.67 -72.28 16.34 -75 16 C-74 14 -74 14 -72.06079102 13.26977539 C-71.21701904 13.04797607 -70.37324707 12.82617676 -69.50390625 12.59765625 C-68.56111816 12.34854492 -67.61833008 12.09943359 -66.64697266 11.84277344 C-65.62909668 11.5852832 -64.6112207 11.32779297 -63.5625 11.0625 C-62.52657715 10.79598633 -61.4906543 10.52947266 -60.42333984 10.25488281 C-52.57573586 8.28423814 -44.72919381 6.79173028 -36.734375 5.578125 C-33.23989624 5.03713875 -29.84165308 4.3427031 -26.40234375 3.5390625 C-22.92547065 2.7588861 -19.43427899 2.05885717 -15.9375 1.375 C-15.2760498 1.23964844 -14.61459961 1.10429687 -13.93310547 0.96484375 C-9.21825471 0.05719696 -4.80135866 -0.11775908 0 0 Z " fill="#EBECEB" transform="translate(425,396)"/>
<path d="M0 0 C0 0.66 0 1.32 0 2 C-16.68678406 5.8779146 -33.66205059 8.45408945 -50.61376953 10.87304688 C-55.66889272 11.60629278 -60.69793875 12.46388756 -65.7265625 13.359375 C-75.17556053 15.04161504 -84.63564921 16.6518687 -94.10473633 18.21704102 C-96.00631237 18.53285046 -97.90735202 18.85190547 -99.80786133 19.17407227 C-102.60895726 19.64853825 -105.41163412 20.11242562 -108.21484375 20.57421875 C-109.05047348 20.71792404 -109.88610321 20.86162933 -110.74705505 21.00968933 C-116.53743725 21.94779635 -122.13880085 22.15936795 -128 22 C-128 21.34 -128 20.68 -128 20 C-115.2455367 17.18041774 -102.40989709 15.07596884 -89.5 13.125 C-76.2972439 11.12825538 -63.1080899 9.07481304 -49.9375 6.875 C-49.1875174 6.75020264 -48.43753479 6.62540527 -47.66482544 6.49682617 C-40.51458507 5.30513566 -33.37159546 4.08902631 -26.25 2.734375 C-25.25105713 2.54504395 -24.25211426 2.35571289 -23.22290039 2.16064453 C-21.46494179 1.8225815 -19.7086223 1.47576966 -17.95483398 1.11669922 C-11.93494998 -0.0508774 -6.12253225 -0.16860922 0 0 Z " fill="#DDDEDF" transform="translate(380,292)"/>
<path d="M0 0 C-2 3 -2 3 -4.26806641 3.66015625 C-5.20312012 3.79292969 -6.13817383 3.92570312 -7.1015625 4.0625 C-8.15085937 4.21976562 -9.20015625 4.37703125 -10.28125 4.5390625 C-11.3846875 4.69117188 -12.488125 4.84328125 -13.625 5 C-15.7633866 5.30998725 -17.901404 5.62253099 -20.0390625 5.9375 C-21.73228638 6.18693359 -21.73228638 6.18693359 -23.4597168 6.44140625 C-27.77803464 7.12276003 -32.06593315 7.93342479 -36.35929871 8.75585938 C-46.35791715 10.65805735 -56.40196685 12.30609162 -66.4375 14 C-69.4979401 14.51747627 -72.55830781 15.03537336 -75.61856079 15.55395508 C-77.60586925 15.89054943 -79.59331468 16.22633617 -81.5809021 16.5612793 C-86.06345953 17.31916882 -90.5417145 18.09165066 -95.01220703 18.91796875 C-95.78162125 19.05904053 -96.55103546 19.2001123 -97.34376526 19.34545898 C-99.37215015 19.71990831 -101.39915419 20.10181689 -103.42602539 20.484375 C-107.00387387 21.00055889 -110.39061047 21.09295812 -114 21 C-113.505 19.515 -113.505 19.515 -113 18 C-106.22767773 16.77017042 -99.4547384 15.54378128 -92.68139648 14.31958008 C-90.38601182 13.90432252 -88.09076005 13.48832956 -85.7956543 13.0715332 C-73.90940921 10.91346686 -62.02718391 8.76971986 -50.08207703 6.95988464 C-45.52272779 6.26555197 -41.01661883 5.43460494 -36.5 4.5 C-11.71107847 -0.57595468 -11.71107847 -0.57595468 0 0 Z " fill="#DDDEDF" transform="translate(380,311)"/>
<path d="M0 0 C4.69555107 3.92418032 9.14852421 8.0033209 13.46679688 12.33740234 C14.07104996 12.93990311 14.67530304 13.54240387 15.29786682 14.16316223 C17.27399928 16.13493101 19.24649503 18.11029086 21.21875 20.0859375 C22.6043057 21.47081849 23.99000972 22.85555111 25.37585449 24.24014282 C28.27221698 27.13503569 31.16677532 30.03171723 34.06005859 32.9296875 C37.75167938 36.62699975 41.44776481 40.31981098 45.14522552 44.01128197 C48.00564222 46.86806861 50.86365249 49.72725319 53.72096252 52.58714676 C55.08206481 53.94891184 56.44389844 55.30994639 57.8065033 56.67020798 C70.68800171 69.53441115 70.68800171 69.53441115 75.63293457 75.41275024 C77.94074164 78.09226077 80.46989077 80.53160076 83 83 C81.46356018 86.96239743 78.99379115 88.85599798 75.6875 91.4375 C71.87128567 94.4311197 68.37558051 97.51374471 65 101 C65.65040327 98.1836907 66.53233589 95.5723379 67.5625 92.875 C69.72246631 86.36302237 70.28068032 80.08453117 67.3125 73.75 C65.26351438 70.13328516 62.71080473 67.13882653 60 64 C59.73551056 63.4018045 59.47102112 62.80360901 59.19851685 62.18728638 C57.4751558 59.04216234 54.98611086 56.74180699 52.44873047 54.25341797 C51.88273132 53.69033936 51.31673218 53.12726074 50.73358154 52.54711914 C49.50699412 51.32812952 48.27810198 50.11145556 47.04717636 48.89684677 C45.10159905 46.97680364 43.16234493 45.05057455 41.22463989 43.12258911 C37.11364821 39.03444276 32.99487884 34.9541875 28.875 30.875 C24.09464666 26.14177378 19.31749708 21.40540757 14.54867935 16.66055679 C12.63371277 14.7586005 10.71284362 12.86274214 8.79171753 10.9670105 C7.62501213 9.80756613 6.45858435 8.64784231 5.29248047 7.48779297 C4.48367935 6.69449081 4.48367935 6.69449081 3.65853882 5.88516235 C2.40050528 4.62749443 1.19436628 3.31828152 0 2 C0 1.34 0 0.68 0 0 Z " fill="#D2D2D3" transform="translate(181,260)"/>
<path d="M0 0 C0 0.99 0 1.98 0 3 C-1.55082318 4.55082318 -3.2776798 4.49661259 -5.41796875 4.8671875 C-6.33545898 5.02904541 -7.25294922 5.19090332 -8.19824219 5.35766602 C-9.18469727 5.52838623 -10.17115234 5.69910645 -11.1875 5.875 C-17.5678948 7.0029663 -23.92584291 8.15132445 -30.25 9.5625 C-35.27355581 10.67290773 -40.29710131 11.56543946 -45.375 12.375 C-52.56698647 13.52764669 -59.68684431 14.92968985 -66.8125 16.4375 C-74.78480801 18.11856991 -82.75679525 19.79568898 -90.75 21.375 C-91.62503174 21.55474365 -92.50006348 21.7344873 -93.40161133 21.91967773 C-94.21267334 22.07766846 -95.02373535 22.23565918 -95.859375 22.3984375 C-96.56545898 22.53942871 -97.27154297 22.68041992 -97.99902344 22.82568359 C-100.22539898 23.01963578 -101.87637489 22.65566776 -104 22 C-101.40826191 18.72881389 -98.93320476 18.32453036 -94.91015625 17.60546875 C-93.66492188 17.37520996 -92.4196875 17.14495117 -91.13671875 16.90771484 C-90.14164307 16.73184845 -90.14164307 16.73184845 -89.12646484 16.5524292 C-85.60216028 15.92929763 -82.08479834 15.26882966 -78.56640625 14.61328125 C-77.48820114 14.41400024 -77.48820114 14.41400024 -76.38821411 14.21069336 C-69.39371236 12.90928085 -62.44760091 11.40590174 -55.5 9.875 C-45.95906019 7.78823435 -36.40850158 5.94598998 -26.77587891 4.33642578 C-20.37515833 3.26334022 -14.06261431 1.99722131 -7.7421875 0.515625 C-5.08836537 0.01661571 -2.69249933 -0.09862635 0 0 Z " fill="#DDDEDF" transform="translate(412,380)"/>
<path d="M0 0 C6.53998221 0.45103326 10.69303893 1.54757144 15.4152832 6.47753906 C19.68984427 11.38705011 22.99255592 16.62604239 26.29882812 22.21484375 C28.82561113 26.39022293 31.39699362 29.69884977 35 33 C34.34 34.32 33.68 35.64 33 37 C29.73007206 37.0817482 27.63060122 36.52420348 25.1015625 34.421875 C20.39942833 29.40378715 17.18794597 23.95872297 13.93676758 17.96875 C10.22511214 11.30038308 5.62480145 7.61352806 -1 4 C-0.67 2.68 -0.34 1.36 0 0 Z " fill="#060707" transform="translate(94,78)"/>
<path d="M0 0 C-0.33 0.99 -0.66 1.98 -1 3 C-2.27230469 3.24234375 -3.54460937 3.4846875 -4.85546875 3.734375 C-5.69432617 3.89421875 -6.53318359 4.0540625 -7.39746094 4.21875 C-9.28734418 4.57860176 -11.17732107 4.93796195 -13.06738281 5.296875 C-17.77763417 6.1919937 -22.48654323 7.09257051 -27.19140625 8.015625 C-37.773625 10.08117108 -48.37513513 11.89787011 -59.02734375 13.56591797 C-64.95392248 14.49795007 -70.85901127 15.48951065 -76.75 16.625 C-95.13507779 20.15169731 -95.13507779 20.15169731 -103 20 C-103 19.34 -103 18.68 -103 18 C-94.26633304 15.46605407 -85.58814686 13.70907108 -76.609375 12.31640625 C-75.81015625 12.19201172 -75.0109375 12.06761719 -74.1875 11.93945312 C-72.63078558 11.69871123 -71.07353648 11.46138526 -69.515625 11.22851562 C-64.70492552 10.49125945 -59.94151196 9.60156409 -55.171875 8.6328125 C-46.52573553 6.88155139 -37.85092864 5.3125653 -29.16308594 3.78295898 C-26.47490302 3.30806638 -23.78827883 2.82490882 -21.1015625 2.34179688 C-19.36988153 2.03594909 -17.63811372 1.73059249 -15.90625 1.42578125 C-14.71860046 1.21022331 -14.71860046 1.21022331 -13.50695801 0.99031067 C-8.92967074 0.19609063 -4.64588562 -0.14065596 0 0 Z " fill="#DEDFDF" transform="translate(384,329)"/>
<path d="M0 0 C-0.33 0.99 -0.66 1.98 -1 3 C-3.51354323 3.82736154 -5.85470505 4.42010785 -8.4375 4.9375 C-9.22157227 5.1037085 -10.00564453 5.26991699 -10.81347656 5.44116211 C-18.96824601 7.10861353 -27.1972693 8.34101328 -35.43530273 9.51733398 C-42.15585706 10.49098689 -48.7457727 11.77308889 -55.37646484 13.23510742 C-61.61398888 14.5517873 -67.90030225 15.57659441 -74.1875 16.625 C-76.74384922 17.05254273 -79.29985788 17.48212827 -81.85546875 17.9140625 C-82.96559326 18.0992041 -84.07571777 18.2843457 -85.21948242 18.47509766 C-88.07049515 18.94863369 -88.07049515 18.94863369 -91 20 C-92.39439664 20.06665376 -93.79169875 20.08538199 -95.1875 20.0625 C-97.0746875 20.0315625 -97.0746875 20.0315625 -99 20 C-98.505 18.515 -98.505 18.515 -98 17 C-91.68767991 15.75106466 -85.37451982 14.50644251 -79.06079102 13.26464844 C-76.91834815 12.84276191 -74.77609096 12.41993128 -72.6340332 11.99609375 C-51.60911469 7.83721087 -51.60911469 7.83721087 -41.50415039 6.37207031 C-38.24670909 5.88807494 -35.03392449 5.24373314 -31.8125 4.5625 C-26.03506044 3.38539173 -20.2497298 2.30405038 -14.4375 1.3125 C-13.31275269 1.11539429 -13.31275269 1.11539429 -12.1652832 0.91430664 C-8.05997559 0.2263153 -4.18042559 -0.13868711 0 0 Z " fill="#DCDDDE" transform="translate(396,346)"/>
<path d="M0 0 C0 0.66 0 1.32 0 2 C-6.77308947 3.81529073 -13.61344056 5.10500681 -20.50796509 6.37213135 C-24.06368749 7.02609737 -27.61768496 7.68932791 -31.171875 8.3515625 C-31.90243607 8.48750824 -32.63299713 8.62345398 -33.38569641 8.76351929 C-41.03354157 10.18851562 -48.67416652 11.64996736 -56.3125 13.125 C-58.24561035 13.4969751 -58.24561035 13.4969751 -60.21777344 13.87646484 C-66.63183184 15.11936462 -73.02381034 16.42472594 -79.40185547 17.84033203 C-86.37012956 19.38585768 -92.82551734 20.47045788 -100 20 C-99.67 19.34 -99.34 18.68 -99 18 C-96.6808315 17.24527718 -94.42996033 16.62372736 -92.0625 16.0625 C-91.35319336 15.88920166 -90.64388672 15.71590332 -89.91308594 15.53735352 C-83.87022535 14.10708675 -77.78693972 13.03253078 -71.64477539 12.12719727 C-66.37677937 11.3271583 -61.28836973 10.09204893 -56.12841797 8.76928711 C-51.01740612 7.51247438 -45.85879983 6.53574355 -40.6875 5.5625 C-39.57681152 5.35222168 -38.46612305 5.14194336 -37.32177734 4.92529297 C-33.88219896 4.27796344 -30.44126664 3.63828761 -27 3 C-25.88737793 2.79133301 -24.77475586 2.58266602 -23.62841797 2.36767578 C-20.4623486 1.77677018 -17.29425899 1.19852372 -14.125 0.625 C-13.16295654 0.44525635 -12.20091309 0.2655127 -11.2097168 0.08032227 C-10.31808838 -0.07766846 -9.42645996 -0.23565918 -8.5078125 -0.3984375 C-7.73066895 -0.53942871 -6.95352539 -0.68041992 -6.15283203 -0.82568359 C-3.85813592 -1.01148684 -2.18514675 -0.68367336 0 0 Z " fill="#DDDEDE" transform="translate(404,364)"/>
<path d="M0 0 C0.7425 0.2475 1.485 0.495 2.25 0.75 C2.25 4.75 2.25 4.75 0.84375 6.23046875 C0.3178125 6.73191406 -0.208125 7.23335937 -0.75 7.75 C-1.6531715 9.76237444 -1.6531715 9.76237444 -2.25 12.0625 C-2.49878906 12.94164062 -2.74757813 13.82078125 -3.00390625 14.7265625 C-3.83953415 18.11282425 -4.51263167 21.51573517 -5.1875 24.9375 C-6.31478533 30.29940638 -7.33365818 34.42933241 -10.75 38.75 C-13.375 39.75 -13.375 39.75 -15.75 39.75 C-16.41 39.42 -17.07 39.09 -17.75 38.75 C-17.31725565 35.80733839 -16.70704458 33.66951632 -15.296875 31.02734375 C-13.61192302 27.45745811 -12.96219284 24.32355094 -12.3125 20.4375 C-10.9949821 13.21990864 -9.19899362 7.06799135 -4.8125 1.125 C-2.75 -0.25 -2.75 -0.25 0 0 Z " fill="#08090A" transform="translate(355.75,40.25)"/>
<path d="M0 0 C0 0.99 0 1.98 0 3 C-7.24239294 5.36368502 -14.45597895 6.96381932 -21.95703125 8.26171875 C-23.61601692 8.55499809 -23.61601692 8.55499809 -25.30851746 8.85420227 C-27.62826689 9.26286837 -29.94853405 9.66860561 -32.26928711 10.0715332 C-35.82091852 10.68896351 -39.37047107 11.31743347 -42.91992188 11.94726562 C-45.18217701 12.34440368 -47.4445431 12.74091032 -49.70703125 13.13671875 C-50.76541702 13.3241716 -51.8238028 13.51162445 -52.91426086 13.70475769 C-54.39686653 13.96051323 -54.39686653 13.96051323 -55.90942383 14.22143555 C-56.77416824 14.37227097 -57.63891266 14.52310638 -58.52986145 14.67851257 C-61.04873487 15.00634282 -63.46289855 15.05658349 -66 15 C-66 14.01 -66 13.02 -66 12 C-56.39402891 9.20888451 -46.89023355 7.20293188 -37.015625 5.6484375 C-33.43894696 5.08395721 -29.92791348 4.36285899 -26.40234375 3.5390625 C-22.92547065 2.7588861 -19.43427899 2.05885717 -15.9375 1.375 C-15.2760498 1.23964844 -14.61459961 1.10429687 -13.93310547 0.96484375 C-9.21825471 0.05719696 -4.80135866 -0.11775908 0 0 Z " fill="#141415" transform="translate(425,396)"/>
<path d="M0 0 C0.18433594 0.64839844 0.36867187 1.29679687 0.55859375 1.96484375 C2.91380307 9.93068506 5.63271836 17.74516378 8.4375 25.5625 C8.80866943 26.60204834 9.17983887 27.64159668 9.56225586 28.71264648 C12.16019066 35.90349018 14.9998893 42.9678284 18 50 C17.01 50 16.02 50 15 50 C14.34 50.99 13.68 51.98 13 53 C7.9731313 41.76246076 3.94518291 30.23314712 0.0625 18.5625 C-0.18819244 17.81187286 -0.43888489 17.06124573 -0.69717407 16.28787231 C-1.41561332 14.13208397 -2.12893513 11.97468838 -2.83984375 9.81640625 C-3.05826935 9.15874268 -3.27669495 8.5010791 -3.5017395 7.82348633 C-5 3.23330483 -5 3.23330483 -5 1 C-3 0 -3 0 0 0 Z " fill="#ECECEA" transform="translate(230,374)"/>
<path d="M0 0 C5.75 1.875 5.75 1.875 8 3 C8.48315912 10.12659698 8.48315912 10.12659698 6.375 13.9375 C3.45515869 16.47315166 1.85701519 17 -2 17 C-4.89662628 15.92218557 -6.46212416 14.97032802 -7.9765625 12.23828125 C-8.72189295 10.52123493 -9.3683282 8.76203186 -10 7 C-9.36191406 6.57847656 -8.72382813 6.15695313 -8.06640625 5.72265625 C-7.24011719 5.17480469 -6.41382813 4.62695312 -5.5625 4.0625 C-4.73878906 3.51722656 -3.91507812 2.97195312 -3.06640625 2.41015625 C-1.10014075 1.16197019 -1.10014075 1.16197019 0 0 Z " fill="#F5AAAD" transform="translate(283,213)"/>
<path d="M0 0 C1.625 1.375 1.625 1.375 2.625 4.1875 C2.625 7.375 2.625 7.375 0.8125 10.1875 C-2.1811181 13.1811181 -2.91175778 13.33764176 -7.25 13.6875 C-10.33654332 13.64260482 -11.22154405 13.47858277 -13.875 11.6875 C-15.375 9.375 -15.375 9.375 -16 6.9375 C-15.22831637 3.77359711 -13.74139247 2.26081633 -11.16015625 0.3203125 C-7.44836932 -1.64522894 -3.90935841 -1.02877853 0 0 Z " fill="#F5F5F4" transform="translate(225.375,170.625)"/>
<path d="M0 0 C2.13730967 1.105505 3.95487543 2.41159411 5.8125 3.9375 C4.63317963 7.47546112 3.56826391 8.13340009 0.625 10.3125 C-3.07233592 13.09436137 -6.6558035 15.94914142 -10.1875 18.9375 C-14.1875 14.69507576 -14.1875 14.69507576 -14.1875 11.4375 C-11.92176976 5.7731744 -6.61114017 -0.18888972 0 0 Z " fill="#81B4DC" transform="translate(169.1875,250.0625)"/>
<path d="M0 0 C4.41510774 0.48713098 6.30446645 1.85053197 9.3125 5.0625 C10.00988281 5.79597656 10.70726562 6.52945312 11.42578125 7.28515625 C12.20501953 8.13400391 12.20501953 8.13400391 13 9 C11.46356018 12.96239743 8.99379115 14.85599798 5.6875 17.4375 C1.87128567 20.4311197 -1.62441949 23.51374471 -5 27 C-4.36721185 24.26197433 -3.51763057 21.74031056 -2.5 19.125 C-0.36982709 12.92152085 -0.26832396 6.50454291 0 0 Z " fill="#C5C4C4" transform="translate(251,334)"/>
<path d="M0 0 C3 2 3 2 5 4 C4.52238806 9.37313433 4.52238806 9.37313433 2.4375 11.875 C-1.07883284 13.49792285 -4.2023557 13.83097738 -8 13 C-10.5625 10.8125 -10.5625 10.8125 -12 8 C-11.93255665 5.16737925 -11.35776381 3.61030297 -9.9375 1.1875 C-6.78699262 -0.74345614 -3.52905254 -0.65225679 0 0 Z " fill="#F6F6F5" transform="translate(331,153)"/>
<path d="M0 0 C2.50453915 2.24619127 3.83574156 4.36626338 5.1875 7.4375 C5.53167969 8.19933594 5.87585938 8.96117187 6.23046875 9.74609375 C7 12 7 12 7 16 C4.95703125 17.1796875 4.95703125 17.1796875 2 18 C-0.64166671 17.16884854 -2.8502596 16.31681564 -5.3125 15.125 C-5.95767578 14.82980469 -6.60285156 14.53460938 -7.26757812 14.23046875 C-8.85234357 13.50265055 -10.42723312 12.75339577 -12 12 C-8 8 -4 4 0 0 Z " fill="#F7E0AC" transform="translate(290,375)"/>
<path d="M0 0 C6.91994237 6.69671843 13.1993392 14.02773787 19.4921875 21.30859375 C20.98351619 23.03080564 20.98351619 23.03080564 22.6953125 24.59765625 C24 26 24 26 24 28 C24.66 28 25.32 28 26 28 C29 31.46153846 29 31.46153846 29 34 C25.86559667 33.42308747 24.23714281 32.60867612 22.01171875 30.33984375 C21.47361572 29.79730957 20.9355127 29.25477539 20.38110352 28.69580078 C19.82221436 28.11556152 19.2633252 27.53532227 18.6875 26.9375 C18.10863037 26.34694824 17.52976074 25.75639648 16.93334961 25.14794922 C13.3390972 21.45726442 9.81852635 17.71550756 6.50390625 13.76953125 C5.44604442 12.52482629 4.34491846 11.31624969 3.21484375 10.13671875 C1.65202264 8.47421884 0.22443383 6.92544557 -1 5 C-0.875 2.0625 -0.875 2.0625 0 0 Z " fill="#8BB7DB" transform="translate(159,279)"/>
<path d="M0 0 C2.475 0.495 2.475 0.495 5 1 C5 1.99 5 2.98 5 4 C-0.07132109 5.00050349 -5.14334731 5.99732158 -10.21606445 6.99072266 C-11.94184967 7.32922646 -13.66743741 7.66873871 -15.39282227 8.00927734 C-17.87204655 8.49841967 -20.35195705 8.98393788 -22.83203125 9.46875 C-23.98998955 9.69842468 -23.98998955 9.69842468 -25.17134094 9.93273926 C-28.16434412 10.51489512 -30.94281803 11 -34 11 C-33.67 10.01 -33.34 9.02 -33 8 C-30.47182548 7.15426543 -28.09160433 6.50528428 -25.5 5.9375 C-24.77039063 5.76831055 -24.04078125 5.59912109 -23.2890625 5.42480469 C-21.84237861 5.09080605 -20.39447023 4.76206115 -18.9453125 4.43896484 C-17.36450219 4.08225087 -15.7904008 3.69590132 -14.21875 3.30078125 C-9.36633407 2.09622025 -5.00057444 1.81816093 0 2 C0 1.34 0 0.68 0 0 Z " fill="#DCDDDD" transform="translate(294,401)"/>
<path d="M0 0 C6.33393082 -0.34548714 11.10261508 0.70657253 17 3 C17.38218767 4.65614657 17.71395102 6.32457024 18 8 C17.67 8.33 17.34 8.66 17 9 C15.08687051 8.79861795 13.17403346 8.58749756 11.26953125 8.31640625 C9.77071708 8.10744937 8.26759625 7.92714308 6.76171875 7.77734375 C1.22014736 7.22014736 1.22014736 7.22014736 -1 5 C-0.625 2.375 -0.625 2.375 0 0 Z " fill="#0B0D0E" transform="translate(99,114)"/>
<path d="M0 0 C1.32 1.65 2.64 3.3 4 5 C3.03900391 5.74443359 3.03900391 5.74443359 2.05859375 6.50390625 C-2.83105561 10.34421208 -7.34076134 14.15258274 -11.4296875 18.84765625 C-13 20 -13 20 -15.1953125 19.68359375 C-15.79085937 19.45800781 -16.38640625 19.23242188 -17 19 C-15.58610719 14.35078776 -13.25946384 12.08964223 -9.625 8.9375 C-6.31365467 6.04118852 -3.07133645 3.15139498 0 0 Z " fill="#303437" transform="translate(264,343)"/>
<path d="M0 0 C-0.34888776 2.52943628 -0.81127047 3.7961721 -2.5625 5.6875 C-5.94918409 7.51109912 -9.16435341 8.03143973 -13 8 C-15.5 7.0625 -15.5 7.0625 -17 6 C-17 4.68 -17 3.36 -17 2 C-15.10787298 1.46585888 -13.21108364 0.94821671 -11.3125 0.4375 C-10.25675781 0.14746094 -9.20101563 -0.14257812 -8.11328125 -0.44140625 C-4.99304618 -1.00124767 -3.02306766 -0.84690764 0 0 Z " fill="#101010" transform="translate(295,241)"/>
<path d="M0 0 C0 1.65 0 3.3 0 5 C-1.71866217 6.0384211 -3.45044598 7.05514635 -5.1875 8.0625 C-6.15042969 8.63097656 -7.11335938 9.19945313 -8.10546875 9.78515625 C-11.32916541 11.13815174 -12.72520421 11.04769518 -16 10 C-15.44817711 6.37373531 -14.26341331 4.95813064 -11.375 2.75 C-7.34102818 -0.14805195 -4.87302324 -0.60912791 0 0 Z " fill="#0B0D0F" transform="translate(366,74)"/>
<path d="M0 0 C3.95651429 0.53587101 5.68080322 2.34406791 8.3125 5.25 C9.38951172 6.40242187 9.38951172 6.40242187 10.48828125 7.578125 C12 10 12 10 11.73046875 12.796875 C11.36888672 13.88742188 11.36888672 13.88742188 11 15 C7.84487127 14.67247799 6.31138351 14.28652019 3.9453125 12.109375 C3.34460938 11.33078125 2.74390625 10.5521875 2.125 9.75 C1.50882812 8.98171875 0.89265625 8.2134375 0.2578125 7.421875 C-1.27957624 4.46168549 -0.98473084 3.1201584 0 0 Z " fill="#0E0B0C" transform="translate(384,176)"/>
<path d="M0 0 C6.12300326 0.24011777 8.72900096 1.93734237 13 6 C12.67 7.32 12.34 8.64 12 10 C10.296875 10.66796875 10.296875 10.66796875 8 11 C5.640625 9.92578125 5.640625 9.92578125 3.25 8.3125 C2.45078125 7.79300781 1.6515625 7.27351562 0.828125 6.73828125 C0.22484375 6.16464844 -0.3784375 5.59101563 -1 5 C-1 1 -1 1 0 0 Z " fill="#060606" transform="translate(232,148)"/>
<path d="M0 0 C0 1.32 0 2.64 0 4 C-5.37180176 6.62875405 -10.04492601 7.6083965 -16 8 C-16.3125 5.6875 -16.3125 5.6875 -16 3 C-11.69141878 -1.30858122 -5.65243578 -0.26727805 0 0 Z " fill="#070809" transform="translate(111,129)"/>
<path d="M0 0 C2.125 0 2.125 0 5 1 C8.31369705 4.46431964 11.28538477 8.1553291 12 13 C11 14 11 14 8.6796875 14.359375 C6 14 6 14 3.9453125 11.953125 C3.34460938 11.06109375 2.74390625 10.1690625 2.125 9.25 C1.50882812 8.36828125 0.89265625 7.4865625 0.2578125 6.578125 C-1 4 -1 4 -0.6953125 1.671875 C-0.46585937 1.12015625 -0.23640625 0.5684375 0 0 Z " fill="#120F10" transform="translate(369,180)"/>
<path d="M0 0 C0.875 2 0.875 2 1 5 C-0.58222259 8.05708008 -2.38066891 10.75406292 -5 13 C-7.7109375 13.23046875 -7.7109375 13.23046875 -10 13 C-10.69921875 10.76953125 -10.69921875 10.76953125 -11 8 C-9.70703125 5.76171875 -9.70703125 5.76171875 -7.8125 3.6875 C-7.20019531 2.99011719 -6.58789062 2.29273438 -5.95703125 1.57421875 C-4 0 -4 0 0 0 Z " fill="#0E0E0E" transform="translate(307,137)"/>
<path d="M0 0 C1.91796875 0.171875 1.91796875 0.171875 4 1 C6.54667164 4.70146869 8.11640605 8.57402591 7.75 13.0625 C7.5025 13.701875 7.255 14.34125 7 15 C4.6875 14.875 4.6875 14.875 2 14 C-0.97801865 9.68700747 -1.40533058 6.16796495 -1 1 C-0.67 0.67 -0.34 0.34 0 0 Z " fill="#0A0909" transform="translate(161,215)"/>
<path d="M0 0 C2.25 0 2.25 0 5 1 C7.88290357 4.94211734 9.61693246 9.06454033 9 14 C7.68 14.33 6.36 14.66 5 15 C-1.31578947 5.94736842 -1.31578947 5.94736842 -0.625 1.6875 C-0.41875 1.130625 -0.2125 0.57375 0 0 Z " fill="#0A0909" transform="translate(176,212)"/>
<path d="M0 0 C1.19109375 -0.00386719 1.19109375 -0.00386719 2.40625 -0.0078125 C4.5 0.125 4.5 0.125 6.5 1.125 C6.542721 2.79111905 6.54063832 4.45882885 6.5 6.125 C4.77026886 7.85473114 2.47483037 7.29708117 0.125 7.3125 C-0.85210937 7.32667969 -1.82921875 7.34085937 -2.8359375 7.35546875 C-5.5 7.125 -5.5 7.125 -8.5 5.125 C-6.4286205 0.53837397 -4.94747213 -0.01606322 0 0 Z " fill="#14181B" transform="translate(366.5,86.875)"/>
<path d="M0 0 C2.1875 0 2.1875 0 5 1 C7.11779938 3.44189533 8.82502466 5.98422995 10 9 C9.6328125 11.26171875 9.6328125 11.26171875 9 13 C5 13 5 13 3.4375 11.875 C1.00994059 8.70861816 -1.22657982 5.72200663 -0.6875 1.625 C-0.460625 1.08875 -0.23375 0.5525 0 0 Z " fill="#0C0A0A" transform="translate(192,210)"/>
<path d="M0 0 C1.8125 0 1.8125 0 4 1 C8.10477658 6.76887519 8.10477658 6.76887519 7.75 10.9375 C7.5025 11.618125 7.255 12.29875 7 13 C5.25 12.875 5.25 12.875 3 12 C0.58226235 9.04498731 -0.88712126 7.01590868 -1.3125 3.1875 C-1 1 -1 1 0 0 Z " fill="#080708" transform="translate(356,185)"/>
<path d="M0 0 C0.33 0.99 0.66 1.98 1 3 C3.97 3.495 3.97 3.495 7 4 C4.4845169 5.40867054 2.24046904 6.21320167 -0.5625 7 C-4.08054877 7.83688497 -4.08054877 7.83688497 -7 10 C-8.98 8.68 -10.96 7.36 -13 6 C-12.13375 5.87625 -12.13375 5.87625 -11.25 5.75 C-8.3774583 4.7924861 -7.04910899 3.18571625 -5 1 C-3 0 -3 0 0 0 Z " fill="#A8DEF8" transform="translate(364,81)"/>
<path d="M0 0 C1 3 1 3 0 6 C0.99 6.33 1.98 6.66 3 7 C0.8973294 7.36294314 -1.20721057 7.71506972 -3.3125 8.0625 C-5.07013672 8.35833984 -5.07013672 8.35833984 -6.86328125 8.66015625 C-10 9 -10 9 -13 8 C-13 7.34 -13 6.68 -13 6 C-14.32 5.67 -15.64 5.34 -17 5 C-14.73000175 4.49622232 -12.45896997 3.99709981 -10.1875 3.5 C-8.92292969 3.2215625 -7.65835937 2.943125 -6.35546875 2.65625 C-3 2 -3 2 0 2 C0 1.34 0 0.68 0 0 Z " fill="#E5E5E4" transform="translate(425,397)"/>
<path d="M0 0 C4.2742558 1.5830577 6.26531794 4.50568404 9 8 C4.71 8 0.42 8 -4 8 C-4.66 6.68 -5.32 5.36 -6 4 C-4 2.66666667 -2 1.33333333 0 0 Z " fill="#FAF3F1" transform="translate(192,318)"/>
<path d="M0 0 C0.33 0.66 0.66 1.32 1 2 C1.99 2.33 2.98 2.66 4 3 C4.55561711 5.62275173 5.09492378 8.24707977 5.625 10.875 C5.78484375 11.62136719 5.9446875 12.36773437 6.109375 13.13671875 C6.49370627 15.0758447 6.75531287 17.03835574 7 19 C6.34 19.66 5.68 20.32 5 21 C-0.74031891 7.55125285 -0.74031891 7.55125285 0 0 Z " fill="#F2F3F0" transform="translate(231,387)"/>
<path d="M0 0 C1.93166016 0.01740234 1.93166016 0.01740234 3.90234375 0.03515625 C5.19269531 0.04417969 6.48304688 0.05320313 7.8125 0.0625 C8.81152344 0.07410156 9.81054688 0.08570313 10.83984375 0.09765625 C9.05078125 3.93359375 9.05078125 3.93359375 7.15234375 5.41015625 C3.7383228 6.42513545 1.25610089 5.98335255 -2.16015625 5.09765625 C-3.59765625 3.03515625 -3.59765625 3.03515625 -4.16015625 1.09765625 C-3.16015625 0.09765625 -3.16015625 0.09765625 0 0 Z " fill="#E6E6E5" transform="translate(215.16015625,191.90234375)"/>
<path d="M0 0 C0.99 0.33 1.98 0.66 3 1 C1.63016497 4.16115776 1.0109362 4.9927092 -2 7 C-7.34545455 7.32727273 -7.34545455 7.32727273 -10 6 C-10 5.01 -10 4.02 -10 3 C-9.04287109 2.80083984 -9.04287109 2.80083984 -8.06640625 2.59765625 C-7.24011719 2.42105469 -6.41382813 2.24445313 -5.5625 2.0625 C-4.73878906 1.88847656 -3.91507812 1.71445313 -3.06640625 1.53515625 C-1.02338796 1.19247006 -1.02338796 1.19247006 0 0 Z " fill="#F0F0EF" transform="translate(336,172)"/>
<path d="M0 0 C6.37675351 6.20440882 6.37675351 6.20440882 8 9 C7.6875 11.25 7.6875 11.25 7 13 C5.33333333 11.33333333 3.66666667 9.66666667 2 8 C1.38125 7.505 0.7625 7.01 0.125 6.5 C-1 5 -1 5 -0.6875 2.3125 C-0.460625 1.549375 -0.23375 0.78625 0 0 Z " fill="#80B2DC" transform="translate(159,279)"/>
<path d="M0 0 C0.33 0.66 0.66 1.32 1 2 C-9.37357631 5.44419134 -9.37357631 5.44419134 -15 5 C-14.67 4.01 -14.34 3.02 -14 2 C-9.18912503 0.45073518 -5.08003559 -0.25400178 0 0 Z " fill="#DDDFDF" transform="translate(267,390)"/>
<path d="M0 0 C2.37616467 2.37616467 3.04068181 4.35349521 4.1875 7.5 C4.55230469 8.4796875 4.91710937 9.459375 5.29296875 10.46875 C6 13 6 13 5 15 C2.9375 15.625 2.9375 15.625 1 16 C0.30725783 13.84480212 -0.1312987 12.45954545 0.5 10.25 C1.28230636 6.72962139 0.53279634 3.55197561 0 0 Z " fill="#DFDFDC" transform="translate(236,396)"/>
<path d="M0 0 C1.8871875 0.0309375 1.8871875 0.0309375 3.8125 0.0625 C3.8125 1.0525 3.8125 2.0425 3.8125 3.0625 C0.59798731 4.66975635 -2.62362536 4.11998185 -6.1875 4.0625 C-6.5175 3.0725 -6.8475 2.0825 -7.1875 1.0625 C-4.43671116 0.14557039 -2.82801087 -0.04636083 0 0 Z " fill="#F3F4F2" transform="translate(397.1875,404.9375)"/>
<path d="M0 0 C2.91567804 1.14544495 4.08356761 2.10635878 6.0625 4.625 C6.701875 5.40875 7.34125 6.1925 8 7 C8.99 7 9.98 7 11 7 C11.99 8.485 11.99 8.485 13 10 C12.01 10 11.02 10 10 10 C10.33 11.98 10.66 13.96 11 16 C9.03706234 14.03706234 8.31652719 12.72905545 7.1875 10.25 C5.26504846 6.27451531 2.94778519 3.27531687 0 0 Z " fill="#D5D8D9" transform="translate(241,324)"/>
<path d="M0 0 C0.66 1.32 1.32 2.64 2 4 C1.443125 4.061875 0.88625 4.12375 0.3125 4.1875 C-3.01529218 5.35672428 -4.73133832 7.35322804 -7 10 C-7 10.99 -7 11.98 -7 13 C-8.65 12.67 -10.3 12.34 -12 12 C-8 8 -4 4 0 0 Z " fill="#F2F0CF" transform="translate(290,375)"/>
<path d="M0 0 C3.63 0 7.26 0 11 0 C11 0.66 11 1.32 11 2 C7.32589215 3.17571451 3.83070817 3.07366746 0 3 C0 2.01 0 1.02 0 0 Z " fill="#DADADC" transform="translate(369,292)"/>
<path d="M0 0 C2.60478883 -0.0809313 5.20706653 -0.14045434 7.8125 -0.1875 C8.55048828 -0.21263672 9.28847656 -0.23777344 10.04882812 -0.26367188 C15.54974762 -0.33834499 15.54974762 -0.33834499 18.01171875 1.51171875 C18.50091797 2.24841797 18.50091797 2.24841797 19 3 C16 3 13 3 10 3 C10 2.34 10 1.68 10 1 C6.7 1 3.4 1 0 1 C0 0.67 0 0.34 0 0 Z " fill="#DAE2E7" transform="translate(268,196)"/>
<path d="M0 0 C1.65 0.33 3.3 0.66 5 1 C4.25 2.9375 4.25 2.9375 3 5 C0.875 5.75 0.875 5.75 -1 6 C-1.33 5.01 -1.66 4.02 -2 3 C-1.34 2.01 -0.68 1.02 0 0 Z " fill="#343A3F" transform="translate(249,357)"/>
<path d="M0 0 C2.96404505 2.80804268 5.44499019 5.18315774 7 9 C5.68 10.32 4.36 11.64 3 13 C3.0928125 11.39125 3.0928125 11.39125 3.1875 9.75 C2.99047658 5.80953169 2.52063064 4.83570947 0 2 C0 1.34 0 0.68 0 0 Z " fill="#EAE8E8" transform="translate(147,266)"/>
<path d="M0 0 C0.66 0.99 1.32 1.98 2 3 C0.68 4.32 -0.64 5.64 -2 7 C-4.97 6.01 -7.94 5.02 -11 4 C-7 3 -7 3 -4.375 3.125 C-3.59125 3.08375 -2.8075 3.0425 -2 3 C-1.34 2.01 -0.68 1.02 0 0 Z " fill="#B1E6FA" transform="translate(118,119)"/>
<path d="M0 0 C1.9451 2.91765 2.45276317 4.62537285 3 8 C2.34 8 1.68 8 1 8 C0.34 8.99 -0.32 9.98 -1 11 C-2.26264601 6.70700357 -1.62950412 4.12168689 0 0 Z " fill="#DDDDDC" transform="translate(231,381)"/>
<path d="M0 0 C0 0.66 0 1.32 0 2 C0.99 2.33 1.98 2.66 3 3 C-0.3 3.33 -3.6 3.66 -7 4 C-6.67 3.01 -6.34 2.02 -6 1 C-4 0 -4 0 0 0 Z " fill="#E6E7E7" transform="translate(315,399)"/>
<path d="M0 0 C2.64 0.33 5.28 0.66 8 1 C6.02 3.31 4.04 5.62 2 8 C1 5 1 5 1 2 C0.67 1.34 0.34 0.68 0 0 Z " fill="#E6DFDE" transform="translate(150,245)"/>
<path d="M0 0 C2 1 2 1 2 1 Z M-2 1 C-1.34 1.33 -0.68 1.66 0 2 C-2.31 4.64 -4.62 7.28 -7 10 C-7.66 9.34 -8.32 8.68 -9 8 C-6.69 5.69 -4.38 3.38 -2 1 Z " fill="#EAE8E7" transform="translate(65,62)"/>
<path d="M0 0 C0 0.33 0 0.66 0 1 C-4.29 1 -8.58 1 -13 1 C-13 0.67 -13 0.34 -13 0 C-11.58800422 -0.39222105 -10.17007236 -0.76311059 -8.75 -1.125 C-7.96109375 -1.33382813 -7.1721875 -1.54265625 -6.359375 -1.7578125 C-3.5796929 -2.04314411 -2.34112451 -1.44977894 0 0 Z " fill="#E4E4E3" transform="translate(201,325)"/>
<path d="M0 0 C0.66 0.33 1.32 0.66 2 1 C0.8125 3.5 0.8125 3.5 -1 6 C-3.6875 6.3125 -3.6875 6.3125 -6 6 C-6 5.01 -6 4.02 -6 3 C-4.03533587 1.93224776 -2.03144641 0.93446535 0 0 Z " fill="#EBE5E3" transform="translate(192,318)"/>
<path d="M0 0 C1.32 0.33 2.64 0.66 4 1 C3.67 2.98 3.34 4.96 3 7 C2.34 7 1.68 7 1 7 C0.67 4.69 0.34 2.38 0 0 Z " fill="#F5F6F4" transform="translate(238,410)"/>
<path d="M0 0 C3.63 0.33 7.26 0.66 11 1 C10.67 1.99 10.34 2.98 10 4 C7.03 3.505 7.03 3.505 4 3 C4 2.34 4 1.68 4 1 C2.68 0.67 1.36 0.34 0 0 Z " fill="#D9D9D7" transform="translate(408,402)"/>
<path d="M0 0 C-0.99 0 -1.98 0 -3 0 C-2.67 0.99 -2.34 1.98 -2 3 C-5.34373475 2.44271087 -8.03312999 1.64826111 -11 0 C-3.57142857 -1.28571429 -3.57142857 -1.28571429 0 0 Z " fill="#E5E6E6" transform="translate(318,341)"/>
<path d="M0 0 C2.97 0 5.94 0 9 0 C9 0.33 9 0.66 9 1 C7.35 1 5.7 1 4 1 C4.66 2.32 5.32 3.64 6 5 C3.5625 4.1875 3.5625 4.1875 1 3 C0.67 2.01 0.34 1.02 0 0 Z " fill="#ABE5FB" transform="translate(363,94)"/>
<path d="M0 0 C-0.33 0.66 -0.66 1.32 -1 2 C-3.64 2 -6.28 2 -9 2 C-8 0 -8 0 -6.1875 -0.6875 C-3.81180233 -1.02688538 -2.26664171 -0.72856341 0 0 Z " fill="#D0D1CD" transform="translate(359,410)"/>
<path d="M0 0 C-0.33 0.66 -0.66 1.32 -1 2 C-1.66 2 -2.32 2 -3 2 C-2.34 2.66 -1.68 3.32 -1 4 C-2.65 4 -4.3 4 -6 4 C-6 3.34 -6 2.68 -6 2 C-6.99 1.67 -7.98 1.34 -9 1 C-5.92677456 0.08941469 -3.19902639 -0.08886184 0 0 Z " fill="#E3E4E6" transform="translate(297,344)"/>
<path d="M0 0 C0.66 0.33 1.32 0.66 2 1 C-0.31 3.31 -2.62 5.62 -5 8 C-5.33 7.01 -5.66 6.02 -6 5 C-4.02 3.35 -2.04 1.7 0 0 Z " fill="#96CEEE" transform="translate(78,86)"/>
<path d="M0 0 C-0.66 0 -1.32 0 -2 0 C-2 0.66 -2 1.32 -2 2 C-1.34 2.33 -0.68 2.66 0 3 C-1.65 3 -3.3 3 -5 3 C-5 2.34 -5 1.68 -5 1 C-5.66 0.67 -6.32 0.34 -7 0 C-3.86650268 -1.04449911 -3.01031744 -0.93423645 0 0 Z " fill="#E1E2E3" transform="translate(321,360)"/>
<path d="M0 0 C-3.06117568 2.62386487 -3.73173127 3 -8 3 C-8 2.34 -8 1.68 -8 1 C-4.93251126 -0.86240388 -3.40254489 -1.2151946 0 0 Z " fill="#2F3538" transform="translate(258,356)"/>
<path d="M0 0 C3.16115776 1.36983503 3.9927092 1.9890638 6 5 C5.34 5.66 4.68 6.32 4 7 C0 2.25 0 2.25 0 0 Z " fill="#C1C3C4" transform="translate(245,325)"/>
</svg>
